{
  "accessors": [
    {
      "bufferView": 3,
      "componentType": 5126,
      "count": 30658,
      "max": [
        55.767189025878906,
        193.79852294921875,
        124.40044403076172
      ],
      "min": [
        -55.767192840576172,
        -0.15130375325679779,
        -156.455322265625
      ],
      "type": "VEC3"
    },
    {
      "bufferView": 3,
      "byteOffset": 367896,
      "componentType": 5126,
      "count": 30658,
      "max": [
        1,
        1,
        1
      ],
      "min": [
        -1,
        -1,
        -1
      ],
      "type": "VEC3"
    },
    {
      "bufferView": 4,
      "componentType": 5126,
      "count": 30658,
      "max": [
        1,
        1,
        1,
        1
      ],
      "min": [
        -1,
        -1,
        -1,
        -1
      ],
      "type": "VEC4"
    },
    {
      "bufferView": 2,
      "componentType": 5126,
      "count": 30658,
      "max": [
        0.99760299921035767,
        0.99775397777557373
      ],
      "min": [
        0.002224951284006238,
        0.0022259426768869162
      ],
      "type": "VEC2"
    },
    {
      "bufferView": 1,
      "componentType": 5125,
      "count": 140490,
      "max": [
        30657
      ],
      "min": [
        0
      ],
      "type": "SCALAR"
    },
    {
      "bufferView": 5,
      "componentType": 5126,
      "count": 38,
      "max": [
        1,
        0.0099999997764825821,
        9.2896551562304808e-10,
        0,
        7.8779377465920675e-10,
        1,
        0.0099999997764825821,
        0,
        0.0099999997764825821,
        0.0099999997764825821,
        1,
        0,
        0.95669186115264893,
        1.8515214920043945,
        1.5063508749008179,
        1
      ],
      "min": [
        -0.0099999997764825821,
        -0.0099999997764825821,
        -9.2896551562304808e-10,
        0,
        -7.8779377465920675e-10,
        -0.0086928792297840118,
        -0.0060773096047341824,
        0,
        -0.0099999997764825821,
        -0.0049430602230131626,
        -0.0086928792297840118,
        0,
        -0.95669186115264893,
        -0.91355699300765991,
        -1.6617684364318848,
        1
      ],
      "type": "MAT4"
    },
    {
      "bufferView": 0,
      "componentType": 5123,
      "count": 30658,
      "max": [
        28,
        3,
        3,
        3
      ],
      "min": [
        3,
        3,
        3,
        3
      ],
      "type": "VEC4"
    },
    {
      "bufferView": 4,
      "byteOffset": 490528,
      "componentType": 5126,
      "count": 30658,
      "max": [
        1,
        0,
        0,
        0
      ],
      "min": [
        1,
        0,
        0,
        0
      ],
      "type": "VEC4"
    }
  ],
  "asset": {
    "extras": {
      "author": "Greg McKechnie (https://sketchfab.com/mckechniegreg6)",
      "license": "CC-BY-4.0 (http://creativecommons.org/licenses/by/4.0/)",
      "source": "https://sketchfab.com/3d-models/spot-mini-rigged-5dcbee77730640269cef5bd2587e328a",
      "title": "Spot Mini (Rigged)"
    },
    "generator": "Sketchfab-7.15.0",
    "version": "2.0"
  },
  "bufferViews": [
    {
      "buffer": 0,
      "byteLength": 245264,
      "byteOffset": 0,
      "byteStride": 8,
      "name": "shortBufferViews",
      "target": 34962
    },
    {
      "buffer": 0,
      "byteLength": 561960,
      "byteOffset": 245264,
      "name": "floatBufferViews",
      "target": 34963
    },
    {
      "buffer": 0,
      "byteLength": 245264,
      "byteOffset": 807224,
      "byteStride": 8,
      "name": "floatBufferViews",
      "target": 34962
    },
    {
      "buffer": 0,
      "byteLength": 735792,
      "byteOffset": 1052488,
      "byteStride": 12,
      "name": "floatBufferViews",
      "target": 34962
    },
    {
      "buffer": 0,
      "byteLength": 981056,
      "byteOffset": 1788280,
      "byteStride": 16,
      "name": "floatBufferViews",
      "target": 34962
    },
    {
      "buffer": 0,
      "byteLength": 2432,
      "byteOffset": 2769336,
      "byteStride": 64,
      "name": "floatBufferViews"
    }
  ],
  "buffers": [
    {
      "byteLength": 2771768,
      "uri": "scene.bin"
    }
  ],
  "images": [
    {
      "uri": "textures/spot_baseColor.png"
    },
    {
      "uri": "textures/spot_metallicRoughness.png"
    },
    {
      "uri": "textures/spot_emissive.jpeg"
    },
    {
      "uri": "textures/spot_normal.png"
    }
  ],
  "materials": [
    {
      "alphaCutoff": 0.10000000000000001,
      "alphaMode": "MASK",
      "doubleSided": true,
      "emissiveFactor": [
        1,
        1,
        1
      ],
      "emissiveTexture": {
        "index": 2,
        "texCoord": 0
      },
      "name": "spot",
      "normalTexture": {
        "index": 3,
        "scale": 1,
        "texCoord": 0
      },
      "occlusionTexture": {
        "index": 1,
        "strength": 1,
        "texCoord": 0
      },
      "pbrMetallicRoughness": {
        "baseColorFactor": [
          1,
          1,
          1,
          1
        ],
        "baseColorTexture": {
          "index": 0,
          "texCoord": 0
        },
        "metallicFactor": 1,
        "metallicRoughnessTexture": {
          "index": 1,
          "texCoord": 0
        },
        "roughnessFactor": 1
      }
    }
  ],
  "meshes": [
    {
      "name": "spot_rigged_spot_0",
      "primitives": [
        {
          "attributes": {
            "JOINTS_0": 6,
            "NORMAL": 1,
            "POSITION": 0,
            "TANGENT": 2,
            "TEXCOORD_0": 3,
            "TEXCOORD_1": 3,
            "TEXCOORD_2": 3,
            "TEXCOORD_3": 3,
            "WEIGHTS_0": 7
          },
          "indices": 4,
          "material": 0,
          "mode": 4
        }
      ]
    }
  ],
  "nodes": [
    {
      "children": [
        1
      ],
      "name": "RootNode (gltf orientation matrix)",
      "rotation": [
        -0.70710678118654746,
        -0,
        -0,
        0.70710678118654757
      ]
    },
    {
      "children": [
        2
      ],
      "name": "RootNode (model correction matrix)"
    },
    {
      "children": [
        3
      ],
      "matrix": [
        1,
        0,
        0,
        0,
        0,
        0,
        1,
        0,
        0,
        -1,
        0,
        0,
        0,
        0,
        0,
        1
      ],
      "name": "97dc2122cc12455e830c37696d8366cb.fbx"
    },
    {
      "children": [
        4
      ],
      "name": "RootNode"
    },
    {
      "children": [
        5
      ],
      "matrix": [
        100,
        0,
        0,
        0,
        0,
        -1.6292067939183141e-05,
        -99.999999999998678,
        0,
        0,
        99.999999999998678,
        -1.6292067939183141e-05,
        0,
        0,
        0,
        0,
        1
      ],
      "name": "spot_armature"
    },
    {
      "children": [
        6,
        8,
        7
      ],
      "name": ""
    },
    {
      "children": [
        9,
        11,
        40,
        42,
        44
      ],
      "name": "_rootJoint"
    },
    {
      "matrix": [
        100.00000000000057,
        -2.8421709430404014e-14,
        0,
        0,
        1.7403277740120111e-30,
        6.1232339957367661e-15,
        -100,
        0,
        2.8421709430404014e-14,
        100.00000000000057,
        6.1232339957368008e-15,
        0,
        -2.5316143563713922e-06,
        166.17684031991328,
        82.330797910690308,
        1
      ],
      "name": ""
    },
    {
      "mesh": 0,
      "name": "",
      "skin": 0
    },
    {
      "children": [
        10
      ],
      "name": "spot_legTarget_FL_01",
      "rotation": [
        0.7071068286895752,
        -3.0908619663705394e-08,
        0.70710676908493042,
        3.0908619663705394e-08
      ],
      "translation": [
        0.60769021511077881,
        -0.95727235078811646,
        0.00010704994201660156
      ]
    },
    {
      "name": "spot_legTarget_FL_end_025",
      "rotation": [
        -6.6174449004242214e-24,
        -6.0288678904297723e-24,
        1.3234889800848443e-23,
        1
      ],
      "translation": [
        -1.3552527156068805e-20,
        0.2999998927116394,
        1.1102230246251565e-16
      ]
    },
    {
      "children": [
        12,
        19,
        26,
        33
      ],
      "name": "spot_body_02",
      "rotation": [
        -6.5560716855372903e-09,
        0.14998543262481689,
        0.98868823051452637,
        -4.321693580777719e-08
      ],
      "translation": [
        -3.5390257835388184e-07,
        0.18373054265975952,
        1.2095332145690918
      ]
    },
    {
      "children": [
        13
      ],
      "name": "spot_shoulder_FL_03",
      "rotation": [
        0.039965711534023285,
        0.03996572270989418,
        0.70597654581069946,
        0.70597636699676514
      ],
      "translation": [
        -0.017000354826450348,
        1.0070385932922363,
        2.2351741790771484e-07
      ]
    },
    {
      "children": [
        14,
        16
      ],
      "name": "spot_upperLeg_FL_04",
      "rotation": [
        -0.24812258780002594,
        -0.2481224536895752,
        0.6621442437171936,
        0.66214454174041748
      ],
      "scale": [
        0.99999988079071045,
        0.99999994039535522,
        0.99999988079071045
      ],
      "translation": [
        6.146258613171085e-08,
        0.42318114638328552,
        -3.7252902984619141e-09
      ]
    },
    {
      "children": [
        15
      ],
      "name": "spot_actuatorTarget_FL_05",
      "rotation": [
        0.9667699933052063,
        -1.5938187436503881e-09,
        -2.7891607246033345e-08,
        0.2556481659412384
      ],
      "scale": [
        1,
        1,
        0.99999982118606567
      ],
      "translation": [
        -0.00018155667930841446,
        0.74005860090255737,
        0.086163431406021118
      ]
    },
    {
      "name": "spot_actuatorTarget_FL_end_026",
      "rotation": [
        -3.4694469519536142e-18,
        3.4694469519536142e-18,
        -2.8189256484623115e-18,
        1
      ],
      "translation": [
        0,
        0.19999992847442627,
        0
      ]
    },
    {
      "children": [
        17
      ],
      "name": "spot_lowerLeg_FL_06",
      "rotation": [
        -0.61628186702728271,
        1.4191118502537847e-08,
        1.5965007094109751e-08,
        0.78752565383911133
      ],
      "scale": [
        1,
        1.0000001192092896,
        1
      ],
      "translation": [
        -5.7741999626159668e-08,
        0.98111879825592041,
        7.4505805969238281e-09
      ]
    },
    {
      "children": [
        18
      ],
      "name": "spot_actuator_FL_07",
      "rotation": [
        -0.73998558521270752,
        -1.0523062599077093e-07,
        1.3846126023508987e-08,
        0.67262274026870728
      ],
      "translation": [
        1.8160790205001831e-08,
        -0.12237508594989777,
        -0.012307954952120781
      ]
    },
    {
      "name": "spot_actuator_FL_end_027",
      "rotation": [
        5.5511151231257827e-17,
        1.7347234759768071e-18,
        -2.4286128663675299e-17,
        1
      ],
      "translation": [
        1.1102230246251565e-16,
        0.19999998807907104,
        -1.1102230246251565e-16
      ]
    },
    {
      "children": [
        20
      ],
      "name": "spot_shoulder_FR_08",
      "rotation": [
        -0.057745017111301422,
        0.057745024561882019,
        -0.70474511384963989,
        0.70474487543106079
      ],
      "translation": [
        0.017000354826450348,
        1.0070385932922363,
        2.2351741790771484e-07
      ]
    },
    {
      "children": [
        21,
        24
      ],
      "name": "spot_upperLeg_FR_09",
      "rotation": [
        -0.21608661115169525,
        0.21608646214008331,
        -0.67328035831451416,
        0.67328059673309326
      ],
      "translation": [
        -2.7809399227862741e-08,
        0.4231812059879303,
        2.4586915969848633e-07
      ]
    },
    {
      "children": [
        22
      ],
      "name": "spot_lowerLeg_FR_010",
      "rotation": [
        -0.67766886949539185,
        -1.8997093675920951e-08,
        -6.3323635224321606e-09,
        0.73536717891693115
      ],
      "scale": [
        1,
        1,
        0.99999982118606567
      ],
      "translation": [
        1.9557774066925049e-08,
        0.98111861944198608,
        8.9406967163085938e-08
      ]
    },
    {
      "children": [
        23
      ],
      "name": "spot_actuator_FR_011",
      "rotation": [
        -0.67969602346420288,
        9.9037151812808588e-08,
        -7.6182322672480041e-09,
        0.73349398374557495
      ],
      "scale": [
        1.0000001192092896,
        1.0000003576278687,
        1.0000003576278687
      ],
      "translation": [
        6.0171820223331451e-05,
        -0.12237516045570374,
        -0.012307982891798019
      ]
    },
    {
      "name": "spot_actuator_FR_end_028",
      "rotation": [
        0,
        0,
        1.0408340855860843e-17,
        1
      ],
      "translation": [
        2.7755575615628914e-17,
        0.19999998807907104,
        0
      ]
    },
    {
      "children": [
        25
      ],
      "name": "spot_actuatorTarget_FR_012",
      "rotation": [
        0.9667699933052063,
        -1.2750456690469036e-08,
        3.096538137015159e-08,
        0.2556481659412384
      ],
      "scale": [
        1,
        1,
        1.0000002384185791
      ],
      "translation": [
        0.00018152780830860138,
        0.74005848169326782,
        0.086163528263568878
      ]
    },
    {
      "name": "spot_actuatorTarget_FR_end_029",
      "rotation": [
        1.3877787807814457e-17,
        6.9388939039072284e-18,
        -1.951563910473908e-17,
        1
      ],
      "translation": [
        0,
        0.19999992847442627,
        0
      ]
    },
    {
      "children": [
        27
      ],
      "name": "spot_shoulder_RL_013",
      "rotation": [
        -0.047420699149370193,
        -0.047420725226402283,
        0.70551514625549316,
        0.70551466941833496
      ],
      "translation": [
        -0.017000354826450348,
        -0.77296137809753418,
        1.4901161193847656e-07
      ]
    },
    {
      "children": [
        28,
        31
      ],
      "name": "spot_upperLeg_RL_014",
      "rotation": [
        -0.085872814059257507,
        -0.08587268739938736,
        0.70187294483184814,
        0.7018733024597168
      ],
      "scale": [
        1.0000002384185791,
        1.0000004768371582,
        1
      ],
      "translation": [
        8.1826783571159467e-08,
        0.4231812059879303,
        1.7508864402770996e-07
      ]
    },
    {
      "children": [
        29
      ],
      "name": "spot_lowerLeg_RL_015",
      "rotation": [
        0.88322889804840088,
        -2.5818078341899309e-08,
        -3.5748129789681116e-08,
        -0.46894234418869019
      ],
      "scale": [
        1,
        0.99999988079071045,
        0.99999970197677612
      ],
      "translation": [
        2.2351741790771484e-08,
        0.98111861944198608,
        -8.1956386566162109e-08
      ]
    },
    {
      "children": [
        30
      ],
      "name": "spot_actuator_RL_016",
      "rotation": [
        -0.43609306216239929,
        -4.3466496180144532e-08,
        -2.639035834306469e-08,
        0.89990156888961792
      ],
      "scale": [
        1,
        1.0000001192092896,
        0.9999995231628418
      ],
      "translation": [
        -7.4505805969238281e-09,
        -0.12242861837148666,
        -0.012238096445798874
      ]
    },
    {
      "name": "spot_actuator_RL_end_030",
      "rotation": [
        -2.7755575615628914e-17,
        -1.214306433183765e-17,
        3.4694469519536142e-18,
        1
      ],
      "translation": [
        -5.5511151231257827e-17,
        0.19999998807907104,
        -2.2204460492503131e-16
      ]
    },
    {
      "children": [
        32
      ],
      "name": "spot_actuatorTarget_RL_017",
      "rotation": [
        0.9667699933052063,
        -1.8214616481770918e-09,
        -5.4644786473545537e-08,
        0.2556481659412384
      ],
      "scale": [
        1,
        1,
        1.0000003576278687
      ],
      "translation": [
        -0.00018149614334106445,
        0.7400585412979126,
        0.086163580417633057
      ]
    },
    {
      "name": "spot_actuatorTarget_RL_end_031",
      "rotation": [
        2.7755575615628914e-17,
        -6.9388939039072284e-18,
        -1.214306433183765e-17,
        1
      ],
      "translation": [
        -5.5511151231257827e-17,
        0.20000004768371582,
        0
      ]
    },
    {
      "children": [
        34
      ],
      "name": "spot_shoulder_RR_018",
      "rotation": [
        0.04724542424082756,
        -0.047245454043149948,
        -0.70552694797515869,
        0.70552647113800049
      ],
      "scale": [
        1,
        0.99999994039535522,
        0.99999988079071045
      ],
      "translation": [
        0.017000354826450348,
        -0.77296137809753418,
        1.4901161193847656e-07
      ]
    },
    {
      "children": [
        35,
        38
      ],
      "name": "spot_upperLeg_RR_019",
      "rotation": [
        -0.11777273565530777,
        0.11777261644601822,
        -0.69722980260848999,
        0.69723010063171387
      ],
      "scale": [
        1.0000001192092896,
        1.0000004768371582,
        1.0000001192092896
      ],
      "translation": [
        -5.2039737852282997e-08,
        0.4231812059879303,
        -2.6077032089233398e-08
      ]
    },
    {
      "children": [
        36
      ],
      "name": "spot_lowerLeg_RR_020",
      "rotation": [
        -0.85145711898803711,
        -3.3742018956672837e-08,
        -3.5517913943294843e-08,
        0.52442419528961182
      ],
      "scale": [
        0.99999994039535522,
        0.99999982118606567,
        0.99999982118606567
      ],
      "translation": [
        5.2154064178466797e-08,
        0.98111861944198608,
        -1.5273690223693848e-07
      ]
    },
    {
      "children": [
        37
      ],
      "name": "spot_actuator_RR_021",
      "rotation": [
        -0.48112142086029053,
        4.993096425209842e-08,
        2.5496650124523512e-08,
        0.87665396928787231
      ],
      "scale": [
        1,
        1,
        0.9999995231628418
      ],
      "translation": [
        6.0155987739562988e-05,
        -0.12242878973484039,
        -0.01223808154463768
      ]
    },
    {
      "name": "spot_actuator_RR_end_032",
      "rotation": [
        -6.018531076210112e-35,
        1.7347234759768071e-17,
        3.4694469519536142e-18,
        1
      ],
      "translation": [
        1.1102230246251565e-16,
        0.19999998807907104,
        2.2204460492503131e-16
      ]
    },
    {
      "children": [
        39
      ],
      "name": "spot_actuatorTarget_RR_022",
      "rotation": [
        0.9667699933052063,
        7.2859718258655448e-09,
        6.1930755634875823e-08,
        0.2556481659412384
      ],
      "scale": [
        0.99999994039535522,
        0.99999994039535522,
        0.99999994039535522
      ],
      "translation": [
        0.00018157809972763062,
        0.74005848169326782,
        0.086163438856601715
      ]
    },
    {
      "name": "spot_actuatorTarget_RR_end_033",
      "rotation": [
        -8.3266726846886741e-17,
        -0,
        0,
        1
      ],
      "translation": [
        0,
        0.20000004768371582,
        2.2204460492503131e-16
      ]
    },
    {
      "children": [
        41
      ],
      "name": "spot_legTarget_FR_00",
      "rotation": [
        0.7071068286895752,
        -3.0908619663705394e-08,
        0.70710676908493042,
        3.0908619663705394e-08
      ],
      "translation": [
        -0.19489628076553345,
        -0.95727235078811646,
        0.00010704994201660156
      ]
    },
    {
      "name": "spot_legTarget_FR_end_034",
      "rotation": [
        -6.6174449004242214e-24,
        -6.0288678904297723e-24,
        1.3234889800848443e-23,
        1
      ],
      "translation": [
        -1.3552527156068805e-20,
        0.2999998927116394,
        0
      ]
    },
    {
      "children": [
        43
      ],
      "name": "spot_legTarget_RL_023",
      "rotation": [
        0.7071068286895752,
        -3.0908619663705394e-08,
        0.70710676908493042,
        3.0908619663705394e-08
      ],
      "translation": [
        0.30989706516265869,
        0.8227277398109436,
        0.00010704994201660156
      ]
    },
    {
      "name": "spot_legTarget_RL_end_035",
      "rotation": [
        -6.6174449004242214e-24,
        -6.0288678904297723e-24,
        1.3234889800848443e-23,
        1
      ],
      "translation": [
        1.3552527156068805e-20,
        0.30000007152557373,
        5.5511151231257827e-17
      ]
    },
    {
      "children": [
        45
      ],
      "name": "spot_legTarget_RR_024",
      "rotation": [
        0.7071068286895752,
        -3.0908619663705394e-08,
        0.70710676908493042,
        3.0908619663705394e-08
      ],
      "translation": [
        -0.57046610116958618,
        0.8227277398109436,
        0.00010704994201660156
      ]
    },
    {
      "name": "spot_legTarget_RR_end_036",
      "rotation": [
        -6.6174449004242214e-24,
        -6.0288678904297723e-24,
        1.3234889800848443e-23,
        1
      ],
      "translation": [
        0,
        0.30000007152557373,
        -1.1102230246251565e-16
      ]
    }
  ],
  "samplers": [
    {
      "magFilter": 9729,
      "minFilter": 9987,
      "wrapS": 10497,
      "wrapT": 10497
    }
  ],
  "scene": 0,
  "scenes": [
    {
      "name": "OSG_Scene",
      "nodes": [
        0
      ]
    }
  ],
  "skins": [
    {
      "inverseBindMatrices": 5,
      "joints": [
        6,
        9,
        10,
        11,
        12,
        13,
        14,
        15,
        16,
        17,
        18,
        19,
        20,
        21,
        22,
        23,
        24,
        25,
        26,
        27,
        28,
        29,
        30,
        31,
        32,
        33,
        34,
        35,
        36,
        37,
        38,
        39,
        40,
        41,
        42,
        43,
        44,
        45
      ],
      "skeleton": 6
    }
  ],
  "textures": [
    {
      "sampler": 0,
      "source": 0
    },
    {
      "sampler": 0,
      "source": 1
    },
    {
      "sampler": 0,
      "source": 2
    },
    {
      "sampler": 0,
      "source": 3
    }
  ]
}

